<?xml version="1.0" encoding="UTF-8"?> <svg xmlns="http://www.w3.org/2000/svg" width="200" height="200" viewBox="0 0 200 200" fill="none"><path d="M94.6181 3.39999C97.8886 1.32462 102.064 1.32462 105.334 3.39999L110.711 6.81213C113.042 8.29143 115.881 8.7411 118.556 8.05458L124.724 6.47106C128.476 5.50792 132.446 6.79802 134.915 9.78246L138.975 14.6892C140.735 16.8165 143.296 18.1215 146.052 18.2949L152.407 18.6951C156.273 18.9384 159.651 21.3923 161.077 24.9937L163.421 30.9148C164.438 33.4818 166.47 35.5144 169.037 36.5308L174.958 38.8754C178.56 40.3014 181.014 43.679 181.257 47.5448L181.657 53.9005C181.831 56.656 183.136 59.2172 185.263 60.9772L190.17 65.0367C193.154 67.5058 194.444 71.4764 193.481 75.2281L191.898 81.3965C191.211 84.0707 191.661 86.9098 193.14 89.241L196.552 94.6181C198.628 97.8886 198.628 102.064 196.552 105.334L193.14 110.711C191.661 113.042 191.211 115.881 191.898 118.556L193.481 124.724C194.444 128.476 193.154 132.446 190.17 134.915L185.263 138.975C183.136 140.735 181.831 143.296 181.657 146.052L181.257 152.407C181.014 156.273 178.56 159.651 174.958 161.077L169.037 163.421C166.47 164.438 164.438 166.47 163.421 169.037L161.077 174.958C159.651 178.56 156.273 181.014 152.407 181.257L146.052 181.657C143.296 181.831 140.735 183.136 138.975 185.263L134.915 190.17C132.446 193.154 128.476 194.444 124.724 193.481L118.556 191.898C115.881 191.211 113.042 191.661 110.711 193.14L105.334 196.552C102.064 198.628 97.8886 198.628 94.6181 196.552L89.241 193.14C86.9098 191.661 84.0707 191.211 81.3965 191.898L75.2281 193.481C71.4764 194.444 67.5058 193.154 65.0367 190.17L60.9772 185.263C59.2172 183.136 56.656 181.831 53.9005 181.657L47.5448 181.257C43.679 181.014 40.3014 178.56 38.8754 174.958L36.5308 169.037C35.5144 166.47 33.4818 164.438 30.9148 163.421L24.9937 161.077C21.3923 159.651 18.9384 156.273 18.6951 152.407L18.2949 146.052C18.1215 143.296 16.8165 140.735 14.6892 138.975L9.78246 134.915C6.79803 132.446 5.50792 128.476 6.47106 124.724L8.05458 118.556C8.7411 115.881 8.29143 113.042 6.81213 110.711L3.39999 105.334C1.32462 102.064 1.32462 97.8886 3.39999 94.6181L6.81213 89.241C8.29143 86.9098 8.7411 84.0707 8.05458 81.3965L6.47106 75.2281C5.50792 71.4764 6.79802 67.5058 9.78246 65.0367L14.6892 60.9772C16.8165 59.2172 18.1215 56.656 18.2949 53.9005L18.6951 47.5448C18.9384 43.679 21.3923 40.3014 24.9937 38.8754L30.9148 36.5308C33.4818 35.5144 35.5144 33.4818 36.5308 30.9148L38.8754 24.9937C40.3014 21.3923 43.679 18.9384 47.5448 18.6951L53.9005 18.2949C56.656 18.1215 59.2172 16.8165 60.9772 14.6892L65.0367 9.78246C67.5058 6.79803 71.4764 5.50792 75.2281 6.47106L81.3965 8.05458C84.0707 8.7411 86.9098 8.29143 89.241 6.81213L94.6181 3.39999Z" fill="white"></path><path d="M94.6181 3.39999C97.8886 1.32462 102.064 1.32462 105.334 3.39999L110.711 6.81213C113.042 8.29143 115.881 8.7411 118.556 8.05458L124.724 6.47106C128.476 5.50792 132.446 6.79802 134.915 9.78246L138.975 14.6892C140.735 16.8165 143.296 18.1215 146.052 18.2949L152.407 18.6951C156.273 18.9384 159.651 21.3923 161.077 24.9937L163.421 30.9148C164.438 33.4818 166.47 35.5144 169.037 36.5308L174.958 38.8754C178.56 40.3014 181.014 43.679 181.257 47.5448L181.657 53.9005C181.831 56.656 183.136 59.2172 185.263 60.9772L190.17 65.0367C193.154 67.5058 194.444 71.4764 193.481 75.2281L191.898 81.3965C191.211 84.0707 191.661 86.9098 193.14 89.241L196.552 94.6181C198.628 97.8886 198.628 102.064 196.552 105.334L193.14 110.711C191.661 113.042 191.211 115.881 191.898 118.556L193.481 124.724C194.444 128.476 193.154 132.446 190.17 134.915L185.263 138.975C183.136 140.735 181.831 143.296 181.657 146.052L181.257 152.407C181.014 156.273 178.56 159.651 174.958 161.077L169.037 163.421C166.47 164.438 164.438 166.47 163.421 169.037L161.077 174.958C159.651 178.56 156.273 181.014 152.407 181.257L146.052 181.657C143.296 181.831 140.735 183.136 138.975 185.263L134.915 190.17C132.446 193.154 128.476 194.444 124.724 193.481L118.556 191.898C115.881 191.211 113.042 191.661 110.711 193.14L105.334 196.552C102.064 198.628 97.8886 198.628 94.6181 196.552L89.241 193.14C86.9098 191.661 84.0707 191.211 81.3965 191.898L75.2281 193.481C71.4764 194.444 67.5058 193.154 65.0367 190.17L60.9772 185.263C59.2172 183.136 56.656 181.831 53.9005 181.657L47.5448 181.257C43.679 181.014 40.3014 178.56 38.8754 174.958L36.5308 169.037C35.5144 166.47 33.4818 164.438 30.9148 163.421L24.9937 161.077C21.3923 159.651 18.9384 156.273 18.6951 152.407L18.2949 146.052C18.1215 143.296 16.8165 140.735 14.6892 138.975L9.78246 134.915C6.79803 132.446 5.50792 128.476 6.47106 124.724L8.05458 118.556C8.7411 115.881 8.29143 113.042 6.81213 110.711L3.39999 105.334C1.32462 102.064 1.32462 97.8886 3.39999 94.6181L6.81213 89.241C8.29143 86.9098 8.7411 84.0707 8.05458 81.3965L6.47106 75.2281C5.50792 71.4764 6.79802 67.5058 9.78246 65.0367L14.6892 60.9772C16.8165 59.2172 18.1215 56.656 18.2949 53.9005L18.6951 47.5448C18.9384 43.679 21.3923 40.3014 24.9937 38.8754L30.9148 36.5308C33.4818 35.5144 35.5144 33.4818 36.5308 30.9148L38.8754 24.9937C40.3014 21.3923 43.679 18.9384 47.5448 18.6951L53.9005 18.2949C56.656 18.1215 59.2172 16.8165 60.9772 14.6892L65.0367 9.78246C67.5058 6.79803 71.4764 5.50792 75.2281 6.47106L81.3965 8.05458C84.0707 8.7411 86.9098 8.29143 89.241 6.81213L94.6181 3.39999Z" fill="#408C80"></path><circle cx="99.6373" cy="99.6373" r="82.0143" fill="white"></circle><circle cx="99.976" cy="99.977" r="70.8305" fill="white"></circle><circle cx="99.976" cy="99.977" r="70.8305" fill="#408C80"></circle></svg> 